<svg width="256" height="256" xmlns="http://www.w3.org/2000/svg"><g fill="none" fill-rule="evenodd"><g fill="#1C1443"><path d="M4.886 192H251.08a2 2 0 011.408 3.42c-9.677 9.594-17.865 19.12-24.562 28.58-5.71 8.066-10.406 16.18-14.087 24.344A13 13 0 01201.99 256H53.936a13 13 0 01-11.811-7.569C38.4 240.33 33.64 232.186 27.845 224c-6.788-9.587-14.912-19.116-24.374-28.586A2 2 0 014.886 192zm55.864 39.791c.371 4.336 1.963 7.91 4.775 10.723 2.813 2.812 7.871 4.218 15.176 4.218 4.16 0 7.608-.6 10.342-1.801 2.734-1.202 4.863-2.964 6.387-5.288 1.523-2.325 2.285-4.864 2.285-7.618 0-2.343-.571-4.462-1.714-6.357-1.143-1.895-2.969-3.481-5.479-4.76-2.51-1.28-6.665-2.545-12.465-3.795-2.344-.488-3.828-1.015-4.453-1.582-.645-.547-.967-1.162-.967-1.845 0-.938.39-1.734 1.172-2.388.78-.654 1.943-.982 3.486-.982 1.875 0 3.345.44 4.41 1.319 1.064.879 1.762 2.285 2.094 4.219l12.51-.733c-.547-4.453-2.261-7.7-5.142-9.741-2.88-2.041-7.065-3.062-12.554-3.062-4.472 0-7.993.562-10.561 1.685-2.569 1.123-4.492 2.666-5.772 4.629-1.279 1.963-1.919 4.048-1.919 6.255 0 3.36 1.25 6.123 3.75 8.29 2.48 2.169 6.631 3.907 12.452 5.216 3.554.78 5.82 1.61 6.796 2.49.977.879 1.465 1.875 1.465 2.988 0 1.172-.512 2.202-1.538 3.09-1.025.89-2.485 1.334-4.38 1.334-2.539 0-4.492-.87-5.86-2.607-.839-1.075-1.396-2.637-1.669-4.688l-12.627.791zm46.962-28.74v10.605h13.535V246h13.272v-32.344h13.535v-10.605h-40.342zm48.338 28.74c.371 4.336 1.963 7.91 4.775 10.723 2.813 2.812 7.871 4.218 15.176 4.218 4.16 0 7.608-.6 10.342-1.801 2.734-1.202 4.863-2.964 6.387-5.288 1.523-2.325 2.285-4.864 2.285-7.618 0-2.343-.571-4.462-1.714-6.357-1.143-1.895-2.969-3.481-5.479-4.76-2.51-1.28-6.665-2.545-12.465-3.795-2.344-.488-3.828-1.015-4.453-1.582-.645-.547-.967-1.162-.967-1.845 0-.938.39-1.734 1.172-2.388.78-.654 1.943-.982 3.486-.982 1.875 0 3.345.44 4.41 1.319 1.064.879 1.762 2.285 2.094 4.219l12.51-.733c-.547-4.453-2.261-7.7-5.142-9.741-2.88-2.041-7.065-3.062-12.554-3.062-4.472 0-7.993.562-10.561 1.685-2.569 1.123-4.492 2.666-5.772 4.629-1.279 1.963-1.919 4.048-1.919 6.255 0 3.36 1.25 6.123 3.75 8.29 2.48 2.169 6.631 3.907 12.452 5.216 3.554.78 5.82 1.61 6.796 2.49.977.879 1.465 1.875 1.465 2.988 0 1.172-.512 2.202-1.538 3.09-1.025.89-2.485 1.334-4.38 1.334-2.539 0-4.492-.87-5.86-2.607-.839-1.075-1.396-2.637-1.669-4.688l-12.627.791zM133 29.964V181a1 1 0 001 1h114.982a1 1 0 00.796-1.606L134.796 29.36a1 1 0 00-1.796.605zM123 3.333V181a1 1 0 01-1 1H4.857a1 1 0 01-.835-1.55L121.165 2.783a1 1 0 011.835.55zM73.2 170v-21.882h14.6V170h18.25v-29.176H117L80.5 108 44 140.824h10.95V170H73.2z"/></g></g></svg>